<?xml version="1.0" encoding="UTF-8"?>
<svg version="1.1" xmlns="http://www.w3.org/2000/svg" width="64" height="64">
<path d="M0 0 C1.53718437 -0.01925285 1.53718437 -0.01925285 3.10542297 -0.03889465 C4.21685165 -0.04628159 5.32828033 -0.05366852 6.47338867 -0.0612793 C7.61289474 -0.06935104 8.75240082 -0.07742279 9.92643738 -0.08573914 C12.34156773 -0.09958792 14.75671772 -0.1103065 17.171875 -0.11816406 C20.86585567 -0.1353792 24.55894214 -0.17925999 28.25268555 -0.22338867 C30.59708 -0.2335151 32.94148206 -0.24203136 35.28588867 -0.2487793 C36.39124466 -0.26628738 37.49660065 -0.28379547 38.63545227 -0.30183411 C46.31575407 -0.28010887 46.31575407 -0.28010887 50.25341797 2.07861328 C52.99937913 5.23516486 53.2111978 6.99569885 53.25585938 11.09814453 C53.27511223 12.6353289 53.27511223 12.6353289 53.29475403 14.2035675 C53.30214096 15.31499619 53.30952789 16.42642487 53.31713867 17.5715332 C53.32521042 18.71103928 53.33328217 19.85054535 53.34159851 21.02458191 C53.35544729 23.43971226 53.36616588 25.85486225 53.37402344 28.27001953 C53.39123858 31.9640002 53.43511936 35.65708667 53.47924805 39.35083008 C53.48937448 41.69522453 53.49789074 44.0396266 53.50463867 46.3840332 C53.52214676 47.48938919 53.53965485 48.59474518 53.55769348 49.7335968 C53.53596824 57.4138986 53.53596824 57.4138986 51.17724609 61.3515625 C47.06585415 64.92816257 43.12071071 64.30496745 37.91479492 64.2746582 C37.00758698 64.27324326 36.10037903 64.27182831 35.16567993 64.27037048 C32.26170587 64.26476291 29.35780827 64.25220914 26.45385742 64.23950195 C24.4877127 64.23448793 22.52156677 64.22992485 20.55541992 64.22583008 C15.72986952 64.21479102 10.90437645 64.1975213 6.07885742 64.17700195 C4.98114773 58.19624399 4.85853413 52.42967951 4.82885742 46.36450195 C4.80823242 45.32229492 4.78760742 44.28008789 4.76635742 43.20629883 C4.72886168 35.73995989 5.14238882 28.77654411 10.01635742 22.80200195 C10.69698242 22.26575195 11.37760742 21.72950195 12.07885742 21.17700195 C12.75948242 20.62012695 13.44010742 20.06325195 14.14135742 19.48950195 C18.65686939 16.43060675 23.82579678 16.56442459 29.07885742 17.17700195 C32.58137753 19.22013868 34.85247444 21.27487428 36.07885742 25.17700195 C36.53407941 30.18444384 36.18997793 33.17698988 33.07885742 37.17700195 C30.46881786 39.88025721 29.27653237 40.15996101 25.45385742 40.48950195 C22.07885742 40.17700195 22.07885742 40.17700195 20.07885742 38.17700195 C20.14135742 35.67700195 20.14135742 35.67700195 21.07885742 33.17700195 C22.74552409 32.51033529 24.41219076 31.84366862 26.07885742 31.17700195 C26.97271906 28.62924889 26.97271906 28.62924889 27.07885742 26.17700195 C21.98311674 26.54667995 21.98311674 26.54667995 17.70385742 29.11450195 C14.75966845 32.85135718 14.67661079 35.43049166 15.07885742 40.17700195 C16.61146162 43.24221035 17.77197714 44.7379518 21.06713867 45.8449707 C26.20313221 46.74088667 29.85191631 46.01395112 34.35229492 43.4230957 C37.85783628 40.8930783 39.72607275 38.23535598 41.07885742 34.17700195 C41.83785039 27.46533552 41.56169783 22.30421435 37.48510742 16.7668457 C33.5720492 12.34291599 29.40656631 11.51693853 23.69995117 11.1184082 C16.9342491 11.26965341 11.50291033 13.86074055 6.58276367 18.42700195 C1.48448563 24.35954367 -0.0569398 31.05530911 -0.23754883 38.6887207 C-0.25832993 39.41694534 -0.27911102 40.14516998 -0.30052185 40.89546204 C-0.36583004 43.2183807 -0.42481495 45.54141101 -0.48364258 47.86450195 C-0.52684563 49.44068531 -0.5704605 51.01685743 -0.61450195 52.59301758 C-0.72149218 56.45423171 -0.82281219 60.31555798 -0.92114258 64.17700195 C-4.43646124 63.93732114 -6.46120778 63.5368175 -9.26293945 61.3449707 C-11.8024696 56.49324173 -11.49227538 51.88776754 -11.45239258 46.48950195 C-11.45621948 45.35424072 -11.46004639 44.21897949 -11.46398926 43.04931641 C-11.46670795 40.65209058 -11.45934989 38.25483506 -11.44262695 35.85766602 C-11.42121845 32.19000053 -11.44243193 28.52429406 -11.46801758 24.85668945 C-11.4653743 22.52595597 -11.46024932 20.1952237 -11.45239258 17.86450195 C-11.4604895 16.76855713 -11.46858643 15.6726123 -11.47692871 14.54345703 C-11.38341265 6.94445544 -11.38341265 6.94445544 -9.01293945 3.0090332 C-5.86389147 0.25104346 -4.10322624 0.04467007 0 0 Z " fill="#17A497" transform="translate(10.921142578125,-0.177001953125)"/>
</svg>
